# xmcd
#
# Track frame offsets:
#	150
#	35145
#	54925
#	84687
#	144612
#	187012
#	212737
#	246062
#
# Disc length: 4106 seconds
#
# Revision: 0
# Processed by: cddbd v1.5.2PL0 Copyright (c) Steve Scherf et al.
# Submitted via: audiograbber 1.83.01
#
DISCID=73100808
DTITLE=Pappo - July 93 Los Angeles (with Deacon Jones)
DYEAR=1993
DGENRE=Blues
TTITLE0=Fiesta Cervezal
TTITLE1=El Tropezon
TTITLE2=Pequeña Ala
TTITLE3=Siempre Es Lo Mismo Nena
TTITLE4=Sube A Mi Voiture
TTITLE5=Blues De Santa Fe
TTITLE6=Desconfio
TTITLE7=Tren De Las 16
EXTD=
EXTT0=
EXTT1=
EXTT2=
EXTT3=
EXTT4=
EXTT5=
EXTT6=
EXTT7=
PLAYORDER=
